<svg id="Capa_1" data-name="Capa 1" xmlns="http://www.w3.org/2000/svg" viewBox="0 0 500 500"><defs><style>.cls-1{fill:#21b1b1;}.cls-2{fill:#00537d;}.cls-3{fill:#0a3b59;}.cls-4{fill:#cddf93;}.cls-5{fill:#fff;}</style></defs><title>Plantilla</title><rect class="cls-1" width="500" height="500"/><path class="cls-2" d="M500,0V500H227s16.79-55.57,111-89c62-22,104-71,104-119,0-79-56.92-146.7-95-214C325.82,40.56,313,6.79,313,0Z"/><path class="cls-3" d="M500,0V500H274s3.6-11.82,42-32c78-41,158-59,158-145C474,203,340,98,340,0Z"/><polygon class="cls-4" points="44 326 226 326 226 288.06 240 276 226 264 226 82 44 82 44 326"/><rect class="cls-5" x="35" y="75" width="178" height="237"/></svg>